<svg width="1440" height="820" viewBox="0 0 1440 820" fill="none" xmlns="http://www.w3.org/2000/svg">
<path d="M1446.33 721.669C1465.91 746.796 1478.82 783.149 1465.63 811.483C1452.58 839.818 1413.41 860.133 1374.81 859.999C1336.06 859.732 1297.59 839.016 1290.37 813.889C1283.01 788.763 1306.76 759.359 1325.92 734.366C1345.09 709.239 1359.81 688.657 1380.22 685.449C1400.64 682.242 1426.89 696.409 1446.33 721.669Z" fill="#EBF8FF"/>
<path d="M94.4 751C109.1 770.9 119.2 793 115.3 812.8C111.5 832.5 93.6 849.9 74 856.8C54.3 863.7 32.8 860.1 16.8 850.4C0.69998 840.8 -9.90002 824.9 -14.5 807C-19.2 789.1 -17.8 769.1 -7.60002 750.2C2.59998 731.4 21.8 713.6 41.1 713.6C60.3 713.5 79.7 731.1 94.4 751Z" fill="#EBF8FF"/>
<path d="M1262.4 399.2C1272.9 413.4 1278.5 428.2 1284.8 445.5C1291.2 462.9 1298.3 482.8 1292 496.2C1285.7 509.5 1265.9 516.2 1247.8 519.3C1229.6 522.3 1213.1 521.7 1195.3 518C1177.6 514.4 1158.6 507.7 1147.7 493.9C1136.9 480.1 1134.2 459.1 1137.5 439.1C1140.9 419.1 1150.3 400.1 1165.2 386.6C1180.1 373.1 1200.6 365.2 1218.5 368.1C1236.5 371.1 1251.9 384.9 1262.4 399.2Z" fill="#EBF8FF"/>
<path d="M1490.4 -52.6C1503 -38.5 1509.3 -20.4 1512.4 -1.90002C1515.5 16.6 1515.5 35.6 1507.2 49.6C1498.9 63.6 1482.3 72.6 1466 75.5C1449.8 78.3 1433.8 75 1415.9 71.1C1397.9 67.3 1377.9 62.8 1371.1 50.9C1364.3 38.9 1370.7 19.4 1373.8 -1.10002C1376.9 -21.6 1376.7 -43.2 1387.2 -57.7C1397.6 -72.2 1418.8 -79.7 1438.9 -78.3C1458.9 -77 1477.8 -66.8 1490.4 -52.6Z" fill="#EBF8FF"/>
</svg>
