<svg width="789" height="599" viewBox="0 0 789 599" fill="none" xmlns="http://www.w3.org/2000/svg">
<path d="M473.5 447.587C373.696 447.587 292.5 366.39 292.5 266.587C292.5 166.783 373.696 85.5866 473.5 85.5866C484.051 85.5853 494.583 86.4979 504.977 88.3142C505.107 88.3365 505.23 88.3843 505.342 88.4546C505.453 88.5249 505.549 88.6165 505.625 88.7241C505.7 88.8316 505.754 88.9531 505.783 89.0814C505.811 89.2098 505.815 89.3426 505.792 89.4721C505.769 89.6017 505.721 89.7255 505.65 89.8364C505.58 89.9474 505.488 90.0433 505.38 90.1187C505.272 90.1941 505.151 90.2475 505.022 90.2759C504.894 90.3042 504.761 90.307 504.632 90.2839C494.352 88.488 483.936 87.5855 473.5 87.5866C374.799 87.5866 294.5 167.885 294.5 266.587C294.5 365.288 374.799 445.587 473.5 445.587C572.201 445.587 652.5 365.288 652.5 266.587C652.544 221.975 635.886 178.962 605.805 146.018C605.628 145.822 605.536 145.563 605.549 145.299C605.562 145.035 605.679 144.787 605.874 144.609C606.069 144.431 606.327 144.338 606.591 144.349C606.855 144.36 607.104 144.476 607.283 144.67C637.7 177.983 654.545 221.476 654.5 266.587C654.5 366.39 573.304 447.587 473.5 447.587Z" fill="#E4E4E4"/>
<path d="M468.843 238.498L413.62 84.8669L415.02 84.3634L404.864 56.1066L403.463 56.6105L386.507 9.44108C385.874 7.67935 384.9 6.05959 383.641 4.6743C382.382 3.289 380.862 2.1653 379.168 1.36734C377.475 0.569375 375.641 0.112784 373.771 0.0236461C371.901 -0.0654919 370.032 0.214564 368.27 0.847819L268.437 36.7331C266.676 37.3663 265.056 38.3403 263.671 39.5995C262.285 40.8587 261.161 42.3784 260.363 44.0719C259.565 45.7654 259.109 47.5995 259.02 49.4694C258.93 51.3394 259.21 53.2086 259.844 54.9704L271.666 87.8597L269.453 88.7118L277 108.309L278.771 107.627L280.338 111.986L278.453 112.712L286 132.309L287.444 131.753L342.18 284.027C342.81 285.791 343.782 287.413 345.041 288.8C346.299 290.187 347.82 291.313 349.514 292.111C351.208 292.909 353.044 293.365 354.915 293.453C356.786 293.54 358.656 293.258 360.417 292.621L460.249 256.736C463.805 255.453 466.706 252.813 468.317 249.393C469.928 245.974 470.117 242.056 468.843 238.498Z" fill="#3F3D56"/>
<path d="M355.167 287.557C353.761 287.554 352.391 287.118 351.241 286.309C350.092 285.499 349.219 284.356 348.743 283.033L265.538 51.5588C264.926 49.8539 265.015 47.9755 265.787 46.3367C266.56 44.6979 267.951 43.433 269.656 42.82L290.897 35.1848L290.865 35.9279C290.811 37.218 291.074 38.5017 291.633 39.6659C292.191 40.8301 293.028 41.8391 294.068 42.604C295.108 43.3689 296.321 43.8662 297.598 44.0521C298.876 44.238 300.18 44.1068 301.395 43.6701L348.536 26.7253C349.674 26.204 350.673 25.4221 351.452 24.443C352.232 23.4638 352.77 22.3149 353.024 21.0891C353.274 19.8838 353.236 18.6363 352.913 17.4485C352.589 16.2606 351.99 15.1661 351.163 14.2541L350.665 13.7009L372.606 5.8137C374.311 5.20341 376.189 5.29421 377.827 6.0662C379.465 6.83819 380.731 8.22835 381.345 9.93184L460.73 230.778C462.35 235.302 462.109 240.284 460.061 244.631C458.013 248.978 454.324 252.335 449.803 253.966L357.482 287.151C356.74 287.419 355.956 287.556 355.167 287.557V287.557Z" fill="white"/>
<path d="M393.883 213.029L382.716 217.044C381.714 217.403 380.61 217.35 379.647 216.896C378.684 216.442 377.941 215.624 377.581 214.622C377.221 213.62 377.273 212.516 377.727 211.553C378.18 210.59 378.998 209.846 379.999 209.485L391.166 205.471C392.168 205.111 393.272 205.165 394.235 205.619C395.198 206.073 395.941 206.891 396.302 207.893C396.662 208.894 396.609 209.998 396.156 210.962C395.702 211.925 394.885 212.669 393.883 213.029V213.029Z" fill="#5498FF"/>
<path d="M305.883 35.9333C306.74 35.9333 307.436 35.238 307.436 34.3804C307.436 33.5227 306.74 32.8274 305.883 32.8274C305.025 32.8274 304.33 33.5227 304.33 34.3804C304.33 35.238 305.025 35.9333 305.883 35.9333Z" fill="white"/>
<path d="M635.772 467.38C637.192 461.965 640.6 457.284 645.318 454.27C645.785 453.972 645.298 453.261 644.831 453.559C639.927 456.705 636.39 461.584 634.926 467.222C634.786 467.76 635.634 467.915 635.772 467.38Z" fill="white"/>
<path d="M725.697 333.101L696.757 381.801L697.857 382.381L688.057 400.961L686.017 399.881L679.577 410.711L681.177 411.631L670.677 429.811L668.857 428.761L574.427 587.681C571.95 591.84 567.925 594.847 563.234 596.041C558.543 597.235 553.57 596.52 549.407 594.051L373.857 489.741C369.697 487.265 366.69 483.24 365.496 478.549C364.302 473.858 365.018 468.885 367.487 464.721L518.757 210.141C521.233 205.982 525.258 202.976 529.949 201.782C534.64 200.587 539.613 201.303 543.777 203.771L719.327 308.081C723.484 310.559 726.49 314.584 727.684 319.275C728.878 323.965 728.163 328.937 725.697 333.101V333.101Z" fill="#3F3D56"/>
<path d="M555.663 584.224L379.495 479.548C378.213 478.784 377.286 477.543 376.918 476.098C376.55 474.652 376.771 473.119 377.531 471.835L529.805 215.562C530.569 214.28 531.81 213.353 533.255 212.985C534.701 212.617 536.234 212.838 537.518 213.598L713.686 318.275C714.968 319.039 715.894 320.279 716.262 321.725C716.63 323.171 716.41 324.704 715.649 325.987L563.376 582.261C562.612 583.543 561.371 584.469 559.925 584.837C558.479 585.205 556.947 584.985 555.663 584.224Z" fill="white"/>
<path d="M628.028 261.886C628.886 261.886 629.581 261.191 629.581 260.333C629.581 259.476 628.886 258.78 628.028 258.78C627.17 258.78 626.475 259.476 626.475 260.333C626.475 261.191 627.17 261.886 628.028 261.886Z" fill="white"/>
<path d="M417.294 177.184L343.81 203.997C343.215 204.213 342.558 204.185 341.984 203.918C341.411 203.651 340.966 203.168 340.749 202.574L321.818 150.691C321.602 150.097 321.63 149.441 321.898 148.867C322.165 148.294 322.649 147.849 323.244 147.631L396.728 120.819C397.323 120.602 397.98 120.631 398.554 120.897C399.128 121.164 399.572 121.647 399.789 122.241L418.72 174.124C418.936 174.718 418.908 175.374 418.64 175.948C418.373 176.522 417.889 176.966 417.294 177.184V177.184Z" fill="#E6E6E6"/>
<path d="M394.924 124.67L327.106 149.415C326.508 149.635 326.02 150.083 325.752 150.662C325.483 151.241 325.454 151.903 325.672 152.503L342.531 198.705C342.75 199.305 343.198 199.793 343.777 200.063C344.355 200.333 345.017 200.362 345.616 200.144L413.434 175.399C414.032 175.18 414.519 174.731 414.788 174.153C415.056 173.574 415.084 172.912 414.866 172.312L398.008 126.11C397.788 125.51 397.341 125.022 396.762 124.752C396.184 124.482 395.523 124.453 394.924 124.67V124.67Z" fill="white"/>
<path d="M378.935 155.154L378.892 155.423C379.008 152.3 376.778 149.318 374.054 147.99C371.329 146.662 368.239 146.727 365.398 147.343C363.288 147.8 361.206 148.569 359.563 149.998C357.184 152.068 355.967 155.294 355.134 158.492C354.753 159.955 354.446 161.576 355.059 163.007C355.628 164.334 356.856 165.189 357.937 166.098C359.018 167.006 360.091 168.23 360.074 169.658C360.064 170.509 359.662 171.266 359.4 172.055C359.138 172.843 359.04 173.816 359.555 174.498C359.971 175.049 360.69 175.249 361.327 175.171C361.963 175.093 362.539 174.782 363.101 174.476L377.679 166.529C378.669 165.989 379.515 165.219 380.143 164.284C380.772 163.349 381.164 162.277 381.288 161.16C381.411 160.042 381.261 158.913 380.852 157.867C380.442 156.821 379.784 155.89 378.935 155.154V155.154Z" fill="#2F2E41"/>
<path d="M371.259 169.498C375.41 167.983 377.47 163.18 375.861 158.77C374.252 154.36 369.583 152.013 365.432 153.528C361.282 155.042 359.221 159.845 360.831 164.255C362.44 168.665 367.109 171.012 371.259 169.498Z" fill="#FFB9B9"/>
<path d="M392.654 171.859C391.78 170.967 390.681 170.329 389.477 170.015C388.272 169.701 387.006 169.721 385.816 170.075L383.683 170.709L383.696 170.729L383.696 170.729L377.22 169.452C377.405 169.554 368.763 173.065 368.763 173.065L366.544 177.073L365.212 177.654C364.073 178.15 363.091 178.949 362.372 179.965C361.653 180.981 361.223 182.176 361.129 183.422L360.266 194.799L369.085 191.581L368.966 190.619C369.289 190.811 369.606 191.01 369.918 191.216L400.641 180.006L392.654 171.859Z" fill="#5498FF"/>
<path d="M372.452 152.434C371.908 151.532 370.721 151.462 369.765 151.567C366.99 151.869 364.29 152.694 361.817 153.998C360.016 154.952 358.284 156.237 357.43 158.17C356.764 159.678 356.698 161.514 357.249 163.183C357.571 164.156 358.114 165.092 358.905 165.722C359.696 166.351 360.755 166.631 361.619 166.292L361.815 166.557C365.327 164.712 367.947 161.239 368.907 157.158C369.012 158.706 368.665 160.26 367.905 161.642C370.047 159.768 371.625 157.362 372.464 154.694C372.697 153.974 372.866 153.12 372.452 152.434Z" fill="#2F2E41"/>
<path d="M470.756 343.701L542.002 224.267C542.265 223.922 542.652 223.693 543.082 223.629C543.512 223.566 543.949 223.673 544.301 223.928L694.451 313.497C694.842 313.685 695.144 314.019 695.292 314.427C695.441 314.835 695.423 315.285 695.244 315.681L623.999 435.114C623.736 435.46 623.348 435.689 622.918 435.753C622.489 435.816 622.051 435.709 621.7 435.454L471.55 345.885C471.158 345.697 470.856 345.363 470.708 344.955C470.56 344.547 470.577 344.097 470.756 343.701V343.701Z" fill="#EEEEEE"/>
<path d="M543.548 232.339L478.593 341.227C478.301 341.717 478.214 342.302 478.349 342.853C478.484 343.403 478.831 343.875 479.314 344.164L617.962 426.871C618.446 427.159 619.026 427.241 619.575 427.098C620.124 426.955 620.596 426.6 620.89 426.111L685.844 317.222C686.136 316.732 686.224 316.147 686.089 315.597C685.954 315.046 685.606 314.574 685.123 314.285L546.475 231.578C545.991 231.29 545.411 231.209 544.862 231.351C544.314 231.494 543.841 231.849 543.548 232.339V232.339Z" fill="white"/>
<path d="M566.155 336.604L597.073 338.086L581.08 311.585L566.155 336.604Z" stroke="black" stroke-width="3" stroke-linecap="round" stroke-linejoin="round"/>
<rect x="502.152" y="340.827" width="125.634" height="3.64156" transform="rotate(30.8173 502.152 340.827)" fill="#C4C4C4"/>
<path d="M550.396 548.578L483.056 509.921C482.511 509.608 482.113 509.091 481.949 508.484C481.785 507.877 481.868 507.23 482.181 506.684L509.521 459.057C509.835 458.512 510.352 458.114 510.959 457.949C511.566 457.785 512.213 457.868 512.758 458.18L580.098 496.837C580.643 497.151 581.041 497.668 581.205 498.274C581.369 498.881 581.286 499.529 580.973 500.075L553.633 547.701C553.319 548.246 552.802 548.645 552.195 548.809C551.588 548.973 550.941 548.89 550.396 548.578V548.578Z" fill="#E6E6E6"/>
<path d="M576.199 497.875L513.83 462.071C513.278 461.756 512.626 461.669 512.016 461.83C511.405 461.991 510.887 462.387 510.574 462.93L486.527 504.818C486.216 505.363 486.136 506.01 486.304 506.618C486.473 507.227 486.877 507.746 487.428 508.063L549.797 543.867C550.348 544.182 551 544.269 551.611 544.108C552.221 543.946 552.739 543.551 553.051 543.007L577.098 501.119C577.41 500.575 577.49 499.928 577.322 499.319C577.153 498.711 576.749 498.192 576.199 497.875V497.875Z" fill="white"/>
<path d="M525.328 408.061L425.537 345.328C424.908 344.932 424.482 344.351 424.354 343.711C424.226 343.072 424.405 342.427 424.853 341.918C425.301 341.409 425.98 341.079 426.741 340.999C427.503 340.918 428.284 341.096 428.913 341.491L528.705 404.224C529.334 404.62 529.759 405.201 529.887 405.841C530.016 406.48 529.836 407.125 529.389 407.634C528.941 408.142 528.262 408.473 527.5 408.553C526.739 408.633 525.958 408.456 525.328 408.061V408.061Z" fill="#E6E6E6"/>
<path d="M503.014 410.107L433.372 366.328C432.743 365.932 432.317 365.351 432.189 364.711C432.061 364.072 432.24 363.427 432.688 362.918C433.136 362.409 433.815 362.079 434.576 361.999C435.338 361.918 436.119 362.096 436.748 362.491L506.39 406.271C507.019 406.667 507.445 407.248 507.573 407.887C507.701 408.527 507.522 409.172 507.074 409.68C506.626 410.189 505.947 410.52 505.186 410.6C504.424 410.68 503.643 410.503 503.014 410.107V410.107Z" fill="#E6E6E6"/>
<path d="M506.014 428.107L436.372 384.328C435.743 383.932 435.317 383.351 435.189 382.711C435.061 382.072 435.24 381.427 435.688 380.918C436.136 380.409 436.815 380.079 437.576 379.999C438.338 379.918 439.119 380.096 439.748 380.491L509.39 424.271C510.019 424.667 510.445 425.248 510.573 425.887C510.701 426.527 510.522 427.172 510.074 427.68C509.626 428.189 508.947 428.52 508.186 428.6C507.424 428.68 506.643 428.503 506.014 428.107V428.107Z" fill="#E6E6E6"/>
<path d="M493.014 436.107L423.372 392.328C422.743 391.932 422.317 391.351 422.189 390.711C422.061 390.072 422.24 389.427 422.688 388.918C423.136 388.409 423.815 388.079 424.576 387.999C425.338 387.918 426.119 388.096 426.748 388.491L496.39 432.271C497.019 432.667 497.445 433.248 497.573 433.887C497.701 434.527 497.522 435.172 497.074 435.68C496.626 436.189 495.947 436.52 495.186 436.6C494.424 436.68 493.643 436.503 493.014 436.107V436.107Z" fill="#E6E6E6"/>
<path d="M0.423828 482.605H487.605V200.557C487.602 198.444 486.762 196.418 485.267 194.924C483.773 193.43 481.747 192.589 479.634 192.587H8.39482C6.28155 192.589 4.25551 193.43 2.76118 194.924C1.26685 196.418 0.426268 198.444 0.423828 200.557V482.605Z" fill="#CACACA"/>
<path d="M6.55376e-10 474.973V509.778C-1.57581e-05 511.221 0.284166 512.65 0.836319 513.983C1.38847 515.316 2.19779 516.527 3.21805 517.548C4.23831 518.568 5.44955 519.377 6.78259 519.929C8.11564 520.482 9.54438 520.766 10.9873 520.766H190.802V589.455H188.413C188.226 589.455 188.04 589.491 187.867 589.563C187.694 589.635 187.536 589.74 187.404 589.873C187.271 590.005 187.166 590.162 187.094 590.336C187.023 590.509 186.986 590.694 186.986 590.882V595.659C186.986 595.847 187.023 596.032 187.094 596.206C187.166 596.379 187.271 596.536 187.404 596.669C187.536 596.801 187.694 596.906 187.867 596.978C188.04 597.05 188.226 597.087 188.413 597.087H300.04C300.227 597.087 300.413 597.05 300.586 596.978C300.759 596.906 300.916 596.801 301.049 596.669C301.182 596.536 301.287 596.379 301.358 596.206C301.43 596.032 301.467 595.847 301.467 595.659V590.882C301.467 590.694 301.43 590.509 301.358 590.336C301.287 590.162 301.182 590.005 301.049 589.873C300.916 589.74 300.759 589.635 300.586 589.563C300.413 589.491 300.227 589.455 300.04 589.455H297.651V520.766H477.466C478.908 520.766 480.337 520.482 481.67 519.93C483.003 519.377 484.215 518.568 485.235 517.548C486.255 516.527 487.064 515.316 487.617 513.983C488.169 512.65 488.453 511.221 488.453 509.778V474.973L6.55376e-10 474.973Z" fill="#3F3D56"/>
<path d="M648.485 598.943H1.19066C0.875467 598.942 0.573504 598.816 0.350952 598.593C0.1284 598.37 0.00341797 598.067 0.00341797 597.752C0.00341797 597.437 0.1284 597.134 0.350952 596.911C0.573504 596.688 0.875467 596.562 1.19066 596.561H648.485C648.8 596.562 649.102 596.688 649.324 596.911C649.547 597.134 649.672 597.437 649.672 597.752C649.672 598.067 649.547 598.37 649.324 598.593C649.102 598.816 648.8 598.942 648.485 598.943V598.943Z" fill="#CACACA"/>
<path d="M243.802 198.099C244.739 198.099 245.498 197.339 245.498 196.403C245.498 195.466 244.739 194.707 243.802 194.707C242.866 194.707 242.106 195.466 242.106 196.403C242.106 197.339 242.866 198.099 243.802 198.099Z" fill="white"/>
<path d="M538.985 503.505C542.571 499.63 542.338 493.583 538.463 489.997C534.589 486.411 528.541 486.644 524.955 490.518C521.369 494.393 521.603 500.44 525.477 504.026C529.351 507.612 535.399 507.379 538.985 503.505Z" fill="#9E616A"/>
<path d="M544.746 530.781C545.25 529.191 545.304 527.485 544.902 525.846C544.5 524.208 543.658 522.696 542.464 521.474L542.46 521.467C542.263 521.181 542.03 520.919 541.767 520.689L532.87 512.922L532.064 509.665L523.195 505.281L520.913 507.185L508.633 505.794L508.86 505.776C508.344 505.698 507.825 505.654 507.305 505.644L507.242 505.637C506.888 505.598 506.53 505.61 506.182 505.673C502.71 505.927 499.5 507.691 497.703 510.68L496.026 512.999L542.018 539.401L544.746 530.781Z" fill="#5498FF"/>
<path d="M543.481 498.025C543.984 495.564 542.986 492.668 540.712 491.437C541.183 491.021 541.217 490.271 540.959 489.687C540.7 489.102 540.211 488.646 539.726 488.22C538.722 487.34 537.64 486.486 536.364 486.096C535.088 485.707 533.569 485.877 532.686 486.826C532.194 485.304 530.146 484.471 528.751 485.226C528.033 485.615 527.516 486.394 527.582 487.209C527.649 488.018 528.256 488.714 528.956 489.16C529.657 489.606 530.459 489.858 531.217 490.196C533.027 491.005 534.643 492.376 535.457 494.16C536.271 495.944 536.18 498.15 534.988 499.658C535.737 499.633 536.397 500.328 536.488 501.063C536.579 501.798 536.207 502.517 535.677 503.026C535.147 503.534 534.471 503.867 533.807 504.193C532.584 504.792 531.361 505.392 530.138 505.992L530.308 506.322C531.072 507.301 532.588 507.159 533.76 506.799C535.736 506.19 537.585 505.254 539.227 504.029C541.244 502.524 542.977 500.486 543.481 498.025Z" fill="#2F2E41"/>
<path d="M468.947 469H18.0527C15.6526 468.997 13.3516 468.044 11.6545 466.349C9.95733 464.654 9.0027 462.356 9 459.959V213.042C9.00268 210.645 9.95727 208.346 11.6544 206.651C13.3515 204.956 15.6526 204.003 18.0527 204H468.947C471.347 204.003 473.648 204.956 475.346 206.651C477.043 208.346 477.997 210.645 478 213.042V459.959C477.997 462.356 477.043 464.654 475.346 466.349C473.648 468.044 471.347 468.997 468.947 469V469Z" fill="white"/>
<path d="M418.021 424.997H322.979C322.742 425.017 322.507 424.943 322.324 424.792C322.141 424.642 322.025 424.425 322 424.19V347.81C322.025 347.575 322.141 347.358 322.324 347.208C322.507 347.057 322.742 346.983 322.979 347.003H418.021C418.258 346.983 418.493 347.057 418.676 347.208C418.859 347.358 418.975 347.575 419 347.81V424.19C418.975 424.425 418.859 424.642 418.676 424.793C418.493 424.943 418.258 425.017 418.021 424.997V424.997Z" fill="#F0F0F0"/>
<path d="M408.013 355H332.987C332.725 355 332.475 355.104 332.29 355.289C332.105 355.474 332 355.724 332 355.985V414.015C332 414.276 332.105 414.526 332.29 414.711C332.475 414.896 332.725 415 332.987 415H408.013C408.275 415 408.525 414.896 408.71 414.711C408.895 414.526 409 414.276 409 414.015V355.985C409 355.724 408.895 355.474 408.71 355.289C408.525 355.104 408.275 355 408.013 355V355Z" fill="white"/>
<path d="M368.5 394C373.747 394 378 389.747 378 384.5C378 379.253 373.747 375 368.5 375C363.253 375 359 379.253 359 384.5C359 389.747 363.253 394 368.5 394Z" fill="#FFB8B8"/>
<path d="M382 415H361L361.686 399.647L361.849 399.476L364.206 397H371.705L374.485 399.678L374.709 399.894L380.628 405.535L382 415Z" fill="#5498FF"/>
<path d="M365 415H349.061C349.022 411.456 349 409.334 349 409.334L349.922 408.764L349.926 408.762H349.929L360.086 402.511L362.218 399L362.229 399.124L362.856 406.525C362.856 406.525 363.892 409.918 365 415Z" fill="#2F2E41"/>
<path d="M392 415H374.635C374.898 404.664 373.482 399 374.211 399L374.635 399.33L379.753 403.313L386.498 405.752H386.503L391.153 407.433L391.969 407.728V408.106C391.971 409.015 391.975 411.498 392 415Z" fill="#2F2E41"/>
<path d="M359.499 388C359.499 388 360.325 386.533 360.133 381.632C359.941 376.732 367.325 379.504 373.495 379.036C379.665 378.569 378.359 387.218 378.359 387.218C378.359 387.218 378.804 386.704 379.758 382.529C380.711 378.355 378.547 374.195 378.547 374.195C377.909 369.809 374.475 371.215 374.475 371.215C374.909 371.326 375.286 371.597 375.533 371.975C375.781 372.352 375.88 372.809 375.811 373.257C374.411 370.776 370.976 372.182 370.976 372.182C366.396 369.277 361.753 373.102 361.753 373.102C356.219 374.372 359.465 378.819 359.465 378.819C353.899 381.661 359.499 388 359.499 388Z" fill="#2F2E41"/>
<path d="M351 415H345.014C345.061 414.213 345.062 413.424 345.018 412.637C344.661 411.118 349.69 409.064 349.842 409.002L349.846 409H349.848L350.806 409.55L351 415Z" fill="#2F2E41"/>
<path d="M393 415H385.888L385 406.69L385.996 406C385.996 406 386.087 406.019 386.247 406.058H386.252C387.877 406.408 389.448 406.955 390.926 407.683C391.24 407.85 391.518 408.071 391.746 408.335C391.886 408.494 391.956 408.698 391.94 408.904C391.904 409.215 392.32 411.502 393 415Z" fill="#2F2E41"/>
<path d="M418.021 326.997H322.979C322.742 327.017 322.507 326.943 322.324 326.792C322.141 326.642 322.025 326.425 322 326.19V249.81C322.025 249.575 322.141 249.358 322.324 249.208C322.507 249.057 322.742 248.983 322.979 249.003H418.021C418.258 248.983 418.493 249.057 418.676 249.208C418.859 249.358 418.975 249.575 419 249.81V326.19C418.975 326.425 418.859 326.642 418.676 326.792C418.493 326.943 418.258 327.017 418.021 326.997V326.997Z" fill="#F0F0F0"/>
<path d="M407.026 257H332.974C332.716 257 332.468 257.104 332.286 257.289C332.103 257.474 332 257.724 332 257.985V316.015C332 316.276 332.103 316.526 332.286 316.711C332.468 316.896 332.716 317 332.974 317H407.026C407.284 317 407.532 316.896 407.714 316.711C407.897 316.526 408 316.276 408 316.015V257.985C408 257.724 407.897 257.474 407.714 257.289C407.532 257.104 407.284 257 407.026 257V257Z" fill="white"/>
<path d="M388.058 317C388.472 315.464 388.793 314.14 388.958 313.204C389.009 312.915 389.014 312.619 388.973 312.328C388.356 307.801 377.216 303.973 375.788 303.5L375.443 299.558L361.421 298L359.646 303.043L354.613 304.99C354.431 305.059 354.258 305.151 354.097 305.264C353.675 305.558 353.351 305.978 353.167 306.469C352.984 306.959 352.95 307.496 353.072 308.006L355.215 317H388.058L388.058 317Z" fill="#5498FF"/>
<path d="M359 317H348C348.394 314.439 348.747 312.173 348.976 310.732C349.816 305.488 353.479 305.041 354.053 305.005C354.099 305 354.127 305 354.129 305H356.443L359 317Z" fill="#5498FF"/>
<path d="M388.417 317H391C390.875 315.405 390.289 313.88 389.312 312.607C388.823 311.965 388.191 311.444 387.465 311.083L387.27 311L385 317H388.417Z" fill="#5498FF"/>
<path d="M368 296C373.523 296 378 291.299 378 285.5C378 279.701 373.523 275 368 275C362.477 275 358 279.701 358 285.5C358 291.299 362.477 296 368 296Z" fill="#A0616A"/>
<path d="M360.614 280.604C361.691 281.858 363.514 282.211 365.195 282.355C369.127 282.569 373.07 282.252 376.914 281.414C377.154 283.684 376.503 286.132 377.862 288C378.5 285.739 378.871 283.413 378.967 281.069C379.068 280.063 378.935 279.048 378.577 278.101C378.385 277.626 378.062 277.214 377.644 276.91C377.226 276.607 376.73 276.426 376.212 276.386C376.987 275.808 377.895 275.426 378.856 275.275L375.552 273.642L376.4 272.786L370.419 272.426L372.151 271.343C369.543 270.991 366.904 270.91 364.278 271.1C363.051 271.1 361.848 271.429 360.797 272.052C359.809 272.746 359.238 274.126 359.851 275.146C359.084 275.27 358.361 275.585 357.752 276.06C357.142 276.535 356.667 277.156 356.369 277.863C355.993 278.987 355.903 280.184 356.105 281.35C356.33 283.22 356.772 285.06 357.423 286.832" fill="#2F2E41"/>
<path d="M68 423.161V249.839C68.0609 249.301 68.3304 248.809 68.7509 248.466C69.1714 248.124 69.7095 247.96 70.25 248.008H288.75C289.291 247.96 289.829 248.124 290.249 248.466C290.67 248.809 290.939 249.301 291 249.839V423.161C290.939 423.699 290.67 424.191 290.249 424.534C289.829 424.876 289.291 425.04 288.75 424.992H70.25C69.7095 425.04 69.1714 424.876 68.7509 424.534C68.3304 424.191 68.0609 423.699 68 423.161V423.161Z" fill="#EEEEEE"/>
<path d="M76 257.661V414.339C76.0011 415.045 76.2796 415.721 76.7747 416.22C77.2698 416.718 77.9409 416.999 78.641 417H279.359C280.059 416.999 280.73 416.718 281.225 416.22C281.72 415.721 281.999 415.045 282 414.339V257.661C281.999 256.955 281.72 256.279 281.225 255.78C280.73 255.282 280.059 255.001 279.359 255H78.641C77.9409 255.001 77.2698 255.282 76.7747 255.78C76.2796 256.279 76.0011 256.955 76 257.661V257.661Z" fill="white"/>
<path d="M167 354L200 335.5L167 317V354Z" stroke="#AAAAAA" stroke-width="3" stroke-linecap="round" stroke-linejoin="round"/>
<rect x="101" y="400" width="156" height="2" fill="#AAAAAA"/>
<circle cx="107" cy="401" r="3" fill="#C4C4C4"/>
<path d="M310.124 138.802L284.274 66.9303C284.219 66.6982 284.257 66.4538 284.38 66.2494C284.503 66.045 284.701 65.8968 284.932 65.8365L375.287 33.3381C375.504 33.2376 375.751 33.2258 375.976 33.3051C376.201 33.3845 376.386 33.5487 376.491 33.7627L402.341 105.634C402.396 105.866 402.358 106.111 402.235 106.315C402.112 106.52 401.914 106.668 401.684 106.728L311.328 139.226C311.112 139.327 310.865 139.339 310.64 139.259C310.415 139.18 310.23 139.016 310.124 138.802V138.802Z" fill="#EEEEEE"/>
<path d="M288.239 69.088L311.806 134.614C311.913 134.908 312.13 135.15 312.411 135.284C312.692 135.419 313.013 135.436 313.304 135.331L396.738 105.323C397.029 105.217 397.266 105 397.397 104.717C397.528 104.435 397.542 104.11 397.436 103.815L373.868 38.2894C373.762 37.9946 373.544 37.7535 373.263 37.619C372.983 37.4844 372.661 37.4674 372.37 37.5716L288.936 67.5804C288.645 67.6856 288.409 67.9033 288.278 68.1859C288.147 68.4685 288.133 68.7929 288.239 69.088V69.088Z" fill="white"/>
<path d="M340.369 95.8409L351.776 83.2363L334.954 80.7851L340.369 95.8409Z" stroke="black" stroke-width="3" stroke-linecap="round" stroke-linejoin="round"/>
<rect x="319.85" y="124.475" width="69" height="2" transform="rotate(-19.7822 319.85 124.475)" fill="#C4C4C4"/>
<circle cx="324.199" cy="124.199" r="2.5" transform="rotate(-19.7822 324.199 124.199)" fill="#C4C4C4"/>
<path d="M584.419 491.648L517.057 451.883C516.512 451.561 516.117 451.036 515.959 450.423C515.8 449.81 515.892 449.16 516.213 448.615L544.288 401.054C544.61 400.51 545.135 400.116 545.748 399.958C546.361 399.801 547.012 399.893 547.557 400.214L614.92 439.978C615.464 440.301 615.859 440.826 616.018 441.439C616.176 442.052 616.085 442.702 615.764 443.247L587.688 490.807C587.366 491.352 586.841 491.746 586.228 491.903C585.615 492.061 584.965 491.969 584.419 491.648V491.648Z" fill="#E6E6E6"/>
<path d="M610.798 441.029L548.631 404.331C548.081 404.008 547.426 403.916 546.808 404.076C546.19 404.235 545.66 404.634 545.335 405.183L520.334 447.536C520.01 448.087 519.917 448.743 520.076 449.361C520.234 449.979 520.632 450.509 521.181 450.834L583.348 487.531C583.897 487.855 584.553 487.947 585.171 487.787C585.788 487.627 586.318 487.228 586.643 486.679L611.644 444.326C611.968 443.776 612.061 443.12 611.903 442.502C611.744 441.884 611.347 441.354 610.798 441.029V441.029Z" fill="white"/>
<path d="M577.094 448.023L576.859 448.161C579.345 446.268 580.234 442.653 579.531 439.704C578.828 436.756 576.816 434.41 574.537 432.604C572.845 431.265 570.929 430.144 568.782 429.781C565.672 429.257 562.407 430.364 559.407 431.75C558.035 432.385 556.587 433.176 555.871 434.558C555.206 435.84 555.324 437.332 555.309 438.744C555.293 440.156 555.028 441.762 553.914 442.655C553.25 443.187 552.41 443.357 551.634 443.655C550.858 443.953 550.045 444.495 549.845 445.326C549.683 445.997 549.985 446.68 550.449 447.123C550.913 447.565 551.519 447.813 552.112 448.052L567.506 454.272C568.553 454.695 569.684 454.86 570.806 454.752C571.927 454.644 573.005 454.267 573.946 453.653C574.888 453.039 575.666 452.207 576.214 451.226C576.762 450.246 577.064 449.147 577.094 448.023V448.023Z" fill="#2F2E41"/>
<path d="M561.138 451.197C564.943 453.443 569.962 451.986 572.349 447.943C574.735 443.901 573.585 438.803 569.78 436.557C565.976 434.311 560.957 435.767 558.57 439.81C556.184 443.853 557.334 448.951 561.138 451.197Z" fill="#FFB9B9"/>
<path d="M572.894 469.228C573.028 467.985 572.823 466.732 572.302 465.602C571.78 464.471 570.96 463.507 569.931 462.811L568.088 461.565L568.08 461.588L568.08 461.588L564.957 455.773C564.995 455.982 556.797 451.532 556.797 451.532L552.291 452.361L550.997 451.7C549.891 451.135 548.65 450.884 547.408 450.973C546.167 451.063 544.971 451.489 543.948 452.207L534.609 458.761L542.694 463.533L543.362 462.831C543.418 463.202 543.465 463.574 543.504 463.946L571.668 480.571L572.894 469.228Z" fill="#5498FF"/>
<path d="M575.081 441.287C575.432 440.294 574.733 439.333 574.045 438.661C572.05 436.707 569.698 435.145 567.121 434.062C565.241 433.275 563.149 432.753 561.113 433.32C559.525 433.762 558.064 434.877 557.125 436.363C556.577 437.229 556.199 438.243 556.214 439.253C556.23 440.264 556.686 441.26 557.496 441.712L557.416 442.032C561.071 443.575 565.418 443.395 569.18 441.546C568.051 442.61 566.629 443.328 565.079 443.618C567.887 444.084 570.747 443.776 573.342 442.731C574.046 442.454 574.813 442.042 575.081 441.287Z" fill="#2F2E41"/>
<ellipse cx="786.617" cy="383.679" rx="1" ry="1.5" transform="rotate(30.8173 786.617 383.679)" fill="#C4C4C4"/>
</svg>
