<svg width="767" height="745" viewBox="0 0 767 745" fill="none" xmlns="http://www.w3.org/2000/svg">
<path d="M766.878 385.54C766.989 477.209 731.556 565.352 668.028 631.44C664.198 635.45 660.265 639.363 656.228 643.18C650.078 649.03 643.721 654.653 637.158 660.05C575.76 710.634 499.112 739.059 419.578 740.74C416.928 740.8 414.268 740.83 411.598 740.83C348.168 740.83 268.388 706.95 195.988 660.05C189.998 656.17 184.061 652.2 178.178 648.14C175.428 646.26 172.691 644.353 169.968 642.42C142.044 622.702 115.539 601.049 90.648 577.62C74.3509 562.325 59.0684 545.983 44.898 528.7C-10.732 460.08 -23.002 398.25 56.308 385.54C65.698 384.04 74.8113 382.436 83.648 380.73C96.4481 378.27 108.698 375.613 120.398 372.76C136.158 368.93 150.965 364.776 164.818 360.3C169.478 358.8 174.031 357.27 178.478 355.71C244.218 332.62 288.218 302.51 318.168 269.84C323.248 264.31 327.931 258.713 332.218 253.05C338.777 244.429 344.734 235.368 350.048 225.93C357.383 212.816 363.543 199.079 368.458 184.88L368.728 184.1C392.558 115.36 385.308 51.5996 411.598 30.2596C523.978 -60.9704 663.888 68.9496 729.558 222.16C732.868 229.88 735.981 237.646 738.898 245.46C740.208 248.95 741.471 252.446 742.688 255.95C745.888 265.08 748.791 274.233 751.398 283.41C752.398 286.91 753.351 290.406 754.258 293.9C755.228 297.67 756.158 301.43 757.018 305.19C763.408 332.72 766.878 359.87 766.878 385.54Z" fill="#F2F2F2"/>
<path d="M501.578 740.74C498.928 740.8 496.268 740.83 493.598 740.83C430.168 740.83 345.9 758.4 273.5 711.5C267.51 707.62 266.062 652.2 260.178 648.14L265.338 616.74L421.548 596L499.948 655.95L501.578 740.74Z" fill="#2F2E41"/>
<path d="M509.098 255.95H486.838C486.149 255.95 485.488 256.224 485 256.711C484.513 257.199 484.239 257.86 484.238 258.55V280.81C484.238 281.151 484.304 281.49 484.435 281.805C484.565 282.121 484.757 282.408 484.998 282.65C485.24 282.891 485.527 283.083 485.842 283.213C486.158 283.343 486.497 283.41 486.838 283.409H509.098C509.788 283.409 510.449 283.135 510.936 282.648C511.424 282.16 511.698 281.499 511.698 280.81V258.55C511.696 257.861 511.422 257.2 510.934 256.713C510.447 256.226 509.787 255.952 509.098 255.95V255.95Z" fill="#E6E6E6"/>
<path d="M511.658 296.04C511.547 295.441 511.231 294.899 510.763 294.509C510.296 294.118 509.707 293.903 509.098 293.899H486.838C486.149 293.9 485.488 294.174 485 294.661C484.513 295.149 484.239 295.81 484.238 296.5V318.76C484.238 319.101 484.304 319.44 484.435 319.755C484.565 320.071 484.757 320.358 484.998 320.6C485.24 320.841 485.527 321.033 485.842 321.163C486.158 321.293 486.497 321.36 486.838 321.36H509.098C509.788 321.359 510.449 321.085 510.936 320.598C511.424 320.11 511.698 319.449 511.698 318.76V296.5C511.7 296.345 511.687 296.191 511.658 296.04V296.04Z" fill="#E6E6E6"/>
<path d="M510.108 332.05C509.788 331.917 509.445 331.849 509.098 331.85H486.838C486.496 331.849 486.158 331.916 485.842 332.046C485.527 332.177 485.24 332.368 484.998 332.61C484.757 332.851 484.565 333.138 484.435 333.454C484.304 333.77 484.238 334.108 484.238 334.45V356.71C484.237 357.051 484.303 357.39 484.433 357.706C484.563 358.022 484.755 358.31 484.996 358.551C485.238 358.793 485.525 358.985 485.841 359.115C486.157 359.245 486.496 359.311 486.838 359.31H509.098C509.788 359.309 510.449 359.035 510.936 358.548C511.424 358.06 511.698 357.399 511.698 356.71V334.45C511.697 333.938 511.546 333.438 511.263 333.011C510.98 332.585 510.579 332.25 510.108 332.05Z" fill="#E6E6E6"/>
<path d="M555.858 331.85H533.598C533.256 331.849 532.918 331.916 532.602 332.046C532.286 332.177 532 332.368 531.758 332.61C531.516 332.851 531.325 333.138 531.195 333.454C531.064 333.77 530.997 334.108 530.998 334.45V356.71C530.997 357.051 531.064 357.39 531.195 357.705C531.325 358.021 531.516 358.308 531.758 358.55C532 358.791 532.286 358.983 532.602 359.113C532.918 359.244 533.256 359.31 533.598 359.31H555.858C556.547 359.309 557.209 359.035 557.696 358.548C558.184 358.06 558.458 357.399 558.458 356.71V334.45C558.458 333.76 558.184 333.099 557.696 332.611C557.209 332.124 556.547 331.85 555.858 331.85V331.85Z" fill="#E6E6E6"/>
<path d="M418.095 660.051H417.475L418.005 659.981L418.095 660.051Z" fill="#2F2E41"/>
<path d="M364.815 245.055C402.548 245.055 433.136 214.466 433.136 176.733C433.136 139 402.548 108.411 364.815 108.411C327.081 108.411 296.493 139 296.493 176.733C296.493 214.466 327.081 245.055 364.815 245.055Z" fill="#FFB6B6"/>
<path d="M424.646 126.64C424.646 126.64 442.516 92.4794 403.202 89.3739C403.202 89.3739 369.687 58.9716 335.527 83.8159C335.527 83.8159 316.893 83.8159 306.704 104.902C306.704 104.902 292.049 99.3435 288.828 114.218C288.828 114.218 278.105 145.274 288.828 173.223C299.552 201.173 303.114 204.279 303.114 204.279C303.114 204.279 285.493 145.68 328.384 142.575C371.275 139.469 419.27 112.665 422.845 146.826C426.419 180.987 431.798 189.404 431.798 189.404C431.798 189.404 465.748 140.615 424.646 126.64Z" fill="#2F2E41"/>
<path d="M541.548 345.11L541.328 346.27L538.858 359.31L521.788 449.51L520.778 454.82L518.658 466.05L515.758 481.37L509.328 515.32L507.488 525.05L506.798 528.7L506.558 529.98L504.648 540.05L504.068 543.09L499.408 577.62L495.338 607.71L508.958 621.329L500.838 629.449L495.508 659.98L495.518 660.05H277.988C269.188 654.35 260.515 648.473 251.968 642.419L253.758 629.02C253.758 629.02 259.918 605.09 257.328 602.23C254.748 599.37 249.088 594.26 249.088 594.26L256.218 577.62L257.208 575.31L255.548 540.88L255.508 540.05L254.958 528.699L254.888 527.239L254.778 525.05L252.668 481.369L252.628 480.649L251.988 467.409L251.388 454.82L251.128 449.509L248.558 396.379L246.818 360.3L245.298 328.89L251.408 326.82L316.758 304.609L343.828 269.419L400.168 269.839L427.748 270.05L473.768 312.729L484.238 317.729L484.318 317.769L491.828 321.359L510.868 330.449L530.998 340.07L541.328 345L541.548 345.11Z" fill="#CACACA"/>
<path d="M351.109 557.551C346.98 559.15 342.551 559.825 338.134 559.528C333.716 559.23 329.417 557.968 325.54 555.829C321.664 553.691 318.303 550.728 315.695 547.15C313.086 543.572 311.295 539.466 310.445 535.121L203.886 520.003L240.929 478.101L336.44 498.881C343.835 497.938 351.318 499.74 357.473 503.946C363.628 508.151 368.026 514.469 369.834 521.701C371.642 528.932 370.735 536.576 367.283 543.184C363.832 549.791 358.077 554.903 351.109 557.551V557.551Z" fill="#FFB6B6"/>
<path d="M303.598 481.37C301.624 478.867 298.83 477.142 295.708 476.5L251.988 467.41L247.498 466.48C244.889 465.935 242.424 464.846 240.265 463.283C238.105 461.72 236.3 459.718 234.968 457.41C233.586 454.986 232.75 452.29 232.518 449.51C232.31 446.982 232.612 444.438 233.408 442.03L248.558 396.38L258.388 366.76C259.579 363.187 260.282 359.47 260.478 355.71C261.026 345.302 257.806 335.046 251.408 326.82C245.783 319.589 237.982 314.359 229.157 311.903C220.331 309.446 210.95 309.894 202.398 313.18C202.148 313.27 201.888 313.37 201.638 313.47C195.505 315.918 190.026 319.76 185.633 324.691C181.241 329.621 178.055 335.506 176.328 341.88L165.648 380.73L143.618 460.82C141.413 468.844 140.967 477.25 142.312 485.462C143.657 493.675 146.76 501.5 151.409 508.402C156.059 515.304 162.144 521.12 169.25 525.451C176.355 529.783 184.313 532.528 192.578 533.5L255.548 540.88L284.688 544.3C288.058 544.705 291.456 543.825 294.206 541.837C296.956 539.848 298.857 536.896 299.528 533.57C299.575 533.388 299.612 533.205 299.638 533.02L300.338 528.699L306.268 492.32L306.328 491.949C306.637 490.093 306.554 488.193 306.083 486.37C305.613 484.548 304.767 482.845 303.598 481.37Z" fill="#CACACA"/>
<path d="M418.983 558.717C423.296 559.718 427.776 559.762 432.107 558.844C436.439 557.927 440.516 556.071 444.053 553.407C447.59 550.743 450.499 547.336 452.577 543.426C454.654 539.517 455.849 535.199 456.077 530.777L559.439 500.783L516.858 464.524L425.232 498.565C417.778 498.674 410.623 501.513 405.123 506.545C399.623 511.577 396.159 518.451 395.389 525.866C394.619 533.28 396.595 540.72 400.944 546.774C405.292 552.829 411.711 557.079 418.983 558.717V558.717Z" fill="#FFB6B6"/>
<path d="M610.758 433.69L561.598 320.55C557.577 311.261 550.396 303.697 541.328 299.2C538.525 297.82 535.581 296.747 532.548 296C532.078 295.88 531.608 295.77 531.138 295.679C524.706 294.276 518.034 294.399 511.658 296.04C505.83 297.537 500.382 300.246 495.672 303.99C490.961 307.734 487.092 312.43 484.318 317.77C484.288 317.814 484.261 317.861 484.238 317.909C481.139 323.904 479.491 330.543 479.427 337.29C479.363 344.038 480.884 350.707 483.868 356.76L484.478 357.98L519.218 427.75C520.404 430.135 521.073 432.745 521.179 435.407C521.286 438.07 520.829 440.724 519.837 443.198C518.846 445.671 517.342 447.906 515.426 449.757C513.51 451.609 511.224 453.034 508.718 453.939L506.278 454.82L462.398 470.669C459.105 471.844 456.397 474.251 454.843 477.383C453.29 480.515 453.012 484.127 454.068 487.46L454.178 487.81L466.478 527.169C466.538 527.35 466.598 527.53 466.668 527.709C466.776 528.049 466.91 528.38 467.068 528.699C468.375 531.631 470.686 534 473.584 535.381C476.482 536.761 479.778 537.062 482.878 536.229L506.558 529.979L511.388 528.699L572.538 512.55C580.584 510.423 588.076 506.584 594.5 501.293C600.924 496.003 606.129 489.386 609.759 481.897C613.389 474.408 615.357 466.223 615.529 457.903C615.702 449.582 614.074 441.322 610.758 433.689L610.758 433.69Z" fill="#CACACA"/>
<path d="M45.8979 528.7C60.0684 545.983 75.3508 562.325 91.6479 577.62H543.618C547.972 577.626 552.146 579.36 555.225 582.44C558.303 585.52 560.034 589.695 560.038 594.05L560.688 708.58C588.493 695.805 614.531 679.493 638.158 660.05C644.718 654.66 651.075 649.036 657.228 643.18C661.258 639.36 665.191 635.446 669.028 631.44C697.792 601.475 721.084 566.702 737.848 528.7H45.8979Z" fill="#3F3D56"/>
<path d="M669.028 631.44C665.198 635.45 661.265 639.363 657.228 643.18H561.018V631.44H669.028Z" fill="white"/>
<path d="M540.648 255.95C540.173 255.072 539.469 254.34 538.612 253.829C537.755 253.319 536.776 253.049 535.778 253.05H207.938C206.468 253.053 205.06 253.64 204.021 254.68C202.983 255.72 202.399 257.13 202.398 258.6V454.82H541.328V258.6C541.333 257.672 541.099 256.76 540.648 255.95V255.95Z" fill="#3F3D56"/>
<path d="M202.101 449.507V473.721C202.101 474.725 202.299 475.719 202.683 476.646C203.067 477.574 203.63 478.416 204.34 479.126C205.05 479.836 205.892 480.399 206.82 480.783C207.747 481.167 208.741 481.365 209.745 481.365H334.842V529.151H333.18C333.049 529.151 332.92 529.177 332.8 529.227C332.679 529.277 332.57 529.35 332.478 529.442C332.385 529.534 332.312 529.644 332.262 529.764C332.212 529.885 332.187 530.014 332.187 530.144V533.468C332.187 533.599 332.212 533.728 332.262 533.848C332.312 533.969 332.385 534.078 332.478 534.17C332.57 534.263 332.679 534.336 332.8 534.386C332.92 534.436 333.049 534.461 333.18 534.461H410.838C410.969 534.461 411.098 534.436 411.218 534.386C411.339 534.336 411.448 534.263 411.54 534.17C411.633 534.078 411.706 533.969 411.756 533.848C411.805 533.728 411.831 533.599 411.831 533.468V530.144C411.831 530.014 411.805 529.885 411.756 529.764C411.706 529.644 411.633 529.534 411.54 529.442C411.448 529.35 411.339 529.277 411.218 529.227C411.098 529.177 410.969 529.151 410.838 529.151H409.176V481.365H534.273C535.277 481.365 536.271 481.167 537.198 480.783C538.126 480.399 538.968 479.836 539.678 479.126C540.388 478.416 540.951 477.574 541.335 476.646C541.719 475.719 541.917 474.725 541.917 473.721V449.507H202.101Z" fill="#3F3D56"/>
<path d="M367.903 380.01C385.193 380.01 399.21 365.994 399.21 348.704C399.21 331.414 385.193 317.397 367.903 317.397C350.613 317.397 336.597 331.414 336.597 348.704C336.597 365.994 350.613 380.01 367.903 380.01Z" fill="#5498FF"/>
<path d="M447.668 173H442.668C442.668 135.2 405.258 110.43 367.518 110.41C362.029 110.394 356.551 110.926 351.168 112C345.108 113.21 338.818 114.66 332.638 116.55C308.268 124.02 285.668 138.46 285.668 173C285.663 179.707 286.516 186.388 288.208 192.88L283.368 194.14C281.573 187.236 280.665 180.132 280.668 173C280.668 142.82 293.058 122.09 314.458 109.73C325.708 103.23 339.438 99.0395 355.168 96.9995C361.714 96.1287 368.331 95.9277 374.918 96.3996C418.318 99.5195 447.668 132.8 447.668 173Z" fill="#5498FF"/>
<path d="M455.998 175.769L454.028 161.209C453.542 157.533 451.771 154.146 449.028 151.649C447.267 150.022 445.159 148.816 442.864 148.123C440.568 147.43 438.145 147.268 435.778 147.649L432.648 148.079C431.792 148.192 430.966 148.474 430.219 148.908C429.473 149.343 428.82 149.921 428.298 150.609C427.772 151.296 427.387 152.08 427.166 152.915C426.945 153.751 426.891 154.623 427.008 155.479L431.558 189.019C431.746 190.387 432.358 191.66 433.309 192.66C434.261 193.659 435.502 194.334 436.858 194.589C437.26 194.67 437.669 194.71 438.078 194.709C438.373 194.709 438.667 194.689 438.958 194.649L442.458 194.179C444.592 193.896 446.646 193.18 448.492 192.074C450.339 190.968 451.941 189.497 453.198 187.749C453.468 187.369 453.728 186.979 453.968 186.579C455.842 183.307 456.558 179.499 455.998 175.769Z" fill="#5498FF"/>
<path d="M430.628 148.69C429.71 149.136 428.911 149.794 428.298 150.61C427.772 151.296 427.387 152.08 427.166 152.916C426.945 153.751 426.891 154.623 427.008 155.48L431.558 189.02C431.746 190.387 432.358 191.66 433.309 192.66C434.261 193.659 435.502 194.334 436.858 194.59L430.628 148.69Z" fill="white"/>
<path d="M455.998 175.77L454.028 161.21C453.542 157.533 451.771 154.146 449.028 151.65L453.558 185.02C453.626 185.555 453.764 186.08 453.968 186.58C455.842 183.307 456.557 179.499 455.998 175.77V175.77Z" fill="#3F3D56"/>
<path d="M440.428 186.26C441.796 186.075 442.484 182.819 441.964 178.988C441.445 175.157 439.914 172.202 438.546 172.387C437.178 172.573 436.49 175.829 437.01 179.66C437.53 183.491 439.06 186.446 440.428 186.26Z" fill="#3F3D56"/>
<path d="M437.428 168.26C438.796 168.075 439.484 164.819 438.964 160.988C438.445 157.157 436.914 154.202 435.546 154.387C434.178 154.573 433.49 157.829 434.01 161.66C434.53 165.491 436.06 168.446 437.428 168.26Z" fill="#3F3D56"/>
<path d="M456.428 175.26C457.796 175.075 458.484 171.819 457.964 167.988C457.445 164.157 455.914 161.202 454.546 161.387C453.178 161.573 452.49 164.829 453.01 168.66C453.53 172.491 455.06 175.446 456.428 175.26Z" fill="#3F3D56"/>
<path d="M367.518 110.41C362.029 110.394 356.551 110.926 351.168 112C345.108 113.21 338.818 114.66 332.638 116.55C322.988 116.08 315.888 113.58 314.458 109.73C325.708 103.23 339.438 99.0395 355.168 96.9995C361.714 96.1287 368.331 95.9277 374.918 96.3996C375.615 96.8083 376.218 97.36 376.687 98.0184C377.156 98.6768 377.48 99.4269 377.638 100.22C378.108 103.7 374.138 107.4 367.518 110.41Z" fill="#3F3D56"/>
<path d="M303.678 207.7L295.978 175.69C295.703 174.535 295.094 173.487 294.225 172.677C293.357 171.868 292.269 171.333 291.098 171.14C290.767 171.088 290.433 171.061 290.098 171.06C289.626 171.061 289.156 171.118 288.698 171.23L285.718 171.95C281.881 172.878 278.569 175.29 276.509 178.657C274.448 182.024 273.808 186.071 274.728 189.91L278.178 204.27C278.966 207.65 280.842 210.679 283.518 212.89C283.952 213.24 284.406 213.564 284.878 213.86C286.554 214.91 288.424 215.614 290.377 215.93C292.329 216.246 294.326 216.168 296.248 215.7L299.218 214.98C300.003 214.796 300.742 214.452 301.388 213.97C302.348 213.269 303.079 212.299 303.487 211.183C303.894 210.066 303.961 208.854 303.678 207.7Z" fill="#5498FF"/>
<path d="M287.536 201.744C288.878 201.421 289.233 198.112 288.329 194.353C287.424 190.594 285.603 187.809 284.26 188.132C282.918 188.455 282.563 191.764 283.467 195.523C284.372 199.282 286.193 202.067 287.536 201.744Z" fill="#3F3D56"/>
<path d="M277.536 204.744C278.878 204.421 279.233 201.112 278.329 197.353C277.424 193.594 275.603 190.809 274.26 191.132C272.918 191.455 272.563 194.764 273.467 198.523C274.372 202.282 276.193 205.067 277.536 204.744Z" fill="#3F3D56"/>
<path d="M304.168 207.58L296.468 175.57C296.168 174.32 295.506 173.187 294.565 172.312C293.624 171.436 292.446 170.858 291.178 170.65L301.688 214.37C302.726 213.609 303.516 212.559 303.957 211.35C304.398 210.142 304.472 208.83 304.168 207.58V207.58Z" fill="white"/>
<path d="M276.468 183.57C276.256 182.679 275.857 181.844 275.298 181.12C274.216 183.923 274.017 186.99 274.728 189.91L278.178 204.27C278.966 207.65 280.842 210.679 283.518 212.89L276.468 183.57Z" fill="#3F3D56"/>
</svg>
