<svg width="648" height="563" viewBox="0 0 648 563" fill="none" xmlns="http://www.w3.org/2000/svg">
<path d="M727.231 166.676C790.483 271.594 788.475 418.68 724.219 491.972C659.963 564.762 533.961 564.26 412.477 561.248C290.993 558.236 174.529 553.216 112.783 481.43C51.0367 409.644 43.5067 271.092 101.739 169.186C159.971 66.7779 283.463 1.51787 409.967 0.0118688C535.969 -0.992131 664.481 61.7579 727.231 166.676Z" fill="#90CDF4"/>
<path d="M580.898 227.743V388.983C580.898 392.841 577.74 396 573.881 396H343.262C339.404 396 336.245 392.841 336.245 388.983V227.743C336.245 223.885 339.404 220.726 343.262 220.726H573.881C577.74 220.726 580.898 223.885 580.898 227.743Z" stroke="#CCE9FF" stroke-width="3" stroke-miterlimit="10"/>
<path d="M238.549 364.049H7.92991C3.56024 364.049 0 360.489 0 356.119V194.88C0 190.51 3.56024 186.95 7.92991 186.95H238.549C242.924 186.95 246.479 190.51 246.479 194.88V356.119C246.479 360.489 242.918 364.049 238.549 364.049ZM7.92991 188.775C4.56442 188.775 1.82577 191.514 1.82577 194.88V356.119C1.82577 359.485 4.56442 362.223 7.92991 362.223H238.549C241.914 362.223 244.653 359.485 244.653 356.119V194.88C244.653 191.514 241.914 188.775 238.549 188.775H7.92991Z" fill="#0BC5EA"/>
<path d="M320.337 318.125L306.431 316.993L299.14 312.246L285.118 307.761C285.118 307.761 283.146 309.306 285.44 311.102C286.95 312.289 291.319 312.94 295.78 315.611C287.23 315.161 273.056 314.425 268.01 313.268C267.183 313.08 266.483 313.901 266.799 314.686L267.171 315.611L277.827 318.417L267.73 318.977L273.256 334.228C273.256 334.228 309.23 333.005 311.476 329.08C321.572 330.199 324.378 324.028 324.378 324.028L320.337 318.125Z" fill="#F9CEB2"/>
<path d="M439.127 184.454C436.036 188.575 433.973 192.701 436.553 196.304C439.133 199.907 446.345 196.821 446.345 196.304C446.345 195.786 446.345 188.057 446.345 188.057L439.127 184.454Z" fill="#0E538C"/>
<path d="M261.693 211.616V372.855C261.693 376.714 258.535 379.872 254.676 379.872H24.0576C20.1991 379.872 17.0405 376.714 17.0405 372.855V211.616C17.0405 207.757 20.1991 204.599 24.0576 204.599H254.676C258.535 204.599 261.693 207.757 261.693 211.616Z" fill="#D9F1FF"/>
<path d="M261.693 211.616V219.813H17.0405V211.616C17.0405 207.757 20.1991 204.599 24.0576 204.599H254.676C258.535 204.599 261.693 207.757 261.693 211.616Z" fill="#0BC5EA"/>
<path d="M262.734 318.618L273.628 317.729L279.342 314.011L290.333 310.493C290.333 310.493 290.772 311.37 281.984 316.646C288.684 316.293 299.791 315.715 303.741 314.808C304.392 314.656 304.94 315.301 304.69 315.922L304.398 316.646L296.048 318.843L303.96 319.281L293.413 330.272C293.413 330.272 271.437 330.272 269.678 327.193C261.766 328.069 259.569 323.237 259.569 323.237L262.734 318.618Z" fill="#FCDCC3"/>
<path opacity="0.63" d="M198.096 272.456C202.964 282.802 195.661 352.79 195.661 360.702C195.661 368.613 174.361 363.136 174.361 363.136L177.404 279.151L198.096 272.456Z" fill="#0BC5EA"/>
<path d="M156.2 199.426C148.958 202.469 143.499 208.555 141.15 215.919C139.513 221.043 138.497 225.455 136.878 227.488C134.194 230.853 88.0994 232.332 108.797 266.407C119.405 283.867 186.259 271.191 186.259 271.191C186.259 271.191 199.617 259.615 199.617 241.303C199.617 234.091 184.439 227.494 186.928 222.363C193.604 208.622 179.54 196.298 170.904 197.503C166.449 196.048 160.947 197.436 156.2 199.426Z" fill="#0E538C"/>
<path d="M191.401 286.454C191.401 286.454 192.618 302.886 192.618 310.798C192.618 311.248 192.582 311.729 192.503 312.252C191.279 320.918 180.447 338.793 180.447 338.793L179.716 341.72L174.361 363.136H116.545C116.545 363.136 113.045 328.879 111.171 300.756C111.165 300.689 111.165 300.616 111.159 300.549C110.465 290.075 109.996 280.465 110.021 273.82C110.033 270.527 110.173 267.959 110.459 266.371C110.654 266.097 110.909 265.823 111.226 265.543C112.059 264.819 113.307 264.088 114.865 263.364C117.817 261.977 121.888 260.613 126.373 259.317C138.6 255.775 153.924 252.763 158.172 251.46L173.357 256.597L198.096 272.456L191.401 286.454Z" fill="#0BC5EA"/>
<path d="M266.866 332.707C266.866 332.707 224.155 349.072 179.716 341.72C155.068 337.642 129.885 326.268 111.171 300.756C111.165 300.689 111.165 300.616 111.159 300.549C110.52 287.129 110.191 278.859 110.021 273.82C109.82 267.734 109.85 266.371 109.85 266.371L111.226 265.543L114.865 263.364C117.817 261.977 121.888 260.613 126.373 259.317L132.368 268.805C144.351 282.456 165.627 301.389 192.503 312.252C214.753 321.241 240.849 324.704 268.692 315.058C271.126 320.535 266.866 332.707 266.866 332.707Z" fill="#0BC5EA"/>
<path d="M171.013 239.897L169.096 255.556L163.735 276.108L157.929 252.878L159.213 235.12L171.013 239.897Z" fill="#FCDCC3"/>
<path d="M184.256 221.298C184.256 232.223 176.953 244.413 167.952 244.413C158.951 244.413 151.648 232.223 151.648 221.298C151.648 210.374 158.951 201.519 167.952 201.519C176.953 201.519 184.256 210.374 184.256 221.298Z" fill="#FFE3CA"/>
<path d="M182.845 210.63C180.416 215.803 174.355 222.826 165.055 224.67C155.756 226.52 153.328 233.166 153.328 233.166C153.328 233.166 144.43 222.077 145.648 218.383C146.859 214.689 156.967 201.385 165.865 201.385C174.762 201.385 182.845 204.349 182.845 210.63Z" fill="#0E538C"/>
<path d="M264.432 332.402C265.272 332.402 265.953 331.721 265.953 330.881C265.953 330.041 265.272 329.359 264.432 329.359C263.592 329.359 262.91 330.041 262.91 330.881C262.91 331.721 263.592 332.402 264.432 332.402Z" fill="#FCDCC3"/>
<path d="M261.693 351.877V372.855C261.693 376.714 258.535 379.872 254.676 379.872H24.0576C20.1991 379.872 17.0405 376.714 17.0405 372.855V351.877H261.693Z" fill="#0BC5EA"/>
<path d="M136.933 375.004C141.974 375.004 146.061 370.917 146.061 365.875C146.061 360.833 141.974 356.746 136.933 356.746C131.891 356.746 127.804 360.833 127.804 365.875C127.804 370.917 131.891 375.004 136.933 375.004Z" fill="white"/>
<path d="M162.493 371.352C165.518 371.352 167.971 368.9 167.971 365.875C167.971 362.85 165.518 360.398 162.493 360.398C159.468 360.398 157.016 362.85 157.016 365.875C157.016 368.9 159.468 371.352 162.493 371.352Z" fill="white"/>
<path d="M111.372 371.352C114.397 371.352 116.849 368.9 116.849 365.875C116.849 362.85 114.397 360.398 111.372 360.398C108.347 360.398 105.895 362.85 105.895 365.875C105.895 368.9 108.347 371.352 111.372 371.352Z" fill="white"/>
<path d="M251.652 216.162C253.836 216.162 255.607 214.391 255.607 212.206C255.607 210.021 253.836 208.25 251.652 208.25C249.467 208.25 247.696 210.021 247.696 212.206C247.696 214.391 249.467 216.162 251.652 216.162Z" fill="white"/>
<path opacity="0.85" d="M75.1668 346.4H27.0761C24.9034 346.4 23.1263 344.623 23.1263 342.45V319.622C23.1263 317.449 24.9034 315.672 27.0761 315.672H75.1668C77.3394 315.672 79.1165 317.449 79.1165 319.622V342.45C79.1165 344.623 77.3394 346.4 75.1668 346.4Z" fill="#0BC5EA"/>
<path d="M320.118 211.616V372.855C320.118 376.714 323.276 379.872 327.135 379.872H557.753C561.612 379.872 564.77 376.714 564.77 372.855V211.616C564.77 207.757 561.612 204.599 557.753 204.599H327.135C323.276 204.599 320.118 207.757 320.118 211.616Z" fill="#D9F1FF"/>
<path d="M320.118 211.616V219.813H564.77V211.616C564.77 207.757 561.612 204.599 557.753 204.599H327.135C323.276 204.599 320.118 207.757 320.118 211.616Z" fill="#2A94F4"/>
<path d="M330.159 216.162C332.344 216.162 334.115 214.391 334.115 212.206C334.115 210.021 332.344 208.25 330.159 208.25C327.975 208.25 326.204 210.021 326.204 212.206C326.204 214.391 327.975 216.162 330.159 216.162Z" fill="#CCE9FF"/>
<path d="M506.644 346.4H554.735C556.908 346.4 558.685 344.623 558.685 342.45V319.622C558.685 317.449 556.908 315.672 554.735 315.672H506.644C504.472 315.672 502.695 317.449 502.695 319.622V342.45C502.695 344.623 504.472 346.4 506.644 346.4Z" fill="#CCE9FF"/>
<path d="M446.704 216.162L441.227 235.028L451.378 246.117L464.366 235.74L464.98 211.208L446.704 216.162Z" fill="#FCDCC3"/>
<path d="M436.943 196.45C435.634 220.154 439.085 217.069 448.871 220.203C458.657 223.337 469.186 217.781 472.381 207.8C475.576 197.813 470.239 187.181 460.452 184.047C450.666 180.912 437.521 185.982 436.943 196.45Z" fill="#FFE3CA"/>
<path d="M463.447 196.304C449.778 194.381 431.751 190.12 432.098 175.813C433.9 168.735 434.307 168.893 438.872 171.778C443.436 174.656 470.64 174.102 471.237 179.89C471.833 185.678 470.184 197.247 463.447 196.304Z" fill="#0E538C"/>
<path d="M470.427 177.79C475.448 178.49 481.929 182.343 481.272 188.508C480.615 194.667 479.172 205.177 477.913 207.191C476.653 209.206 465.729 217.562 465.729 217.562C463.69 216.491 465.37 210.666 465.382 208.36C465.406 203.789 465.467 196.59 465.57 196.005C465.729 195.135 464.724 188.228 464.724 188.228L470.427 177.79Z" fill="#0E538C"/>
<path d="M471.016 203.265C471.491 200.625 470.028 198.153 467.749 197.743C465.47 197.333 463.237 199.14 462.762 201.78C462.287 204.42 463.75 206.892 466.029 207.302C468.308 207.712 470.541 205.905 471.016 203.265Z" fill="#FFE3CA"/>
<path d="M466.788 233.202L466.587 233.349L413.841 272.152C410.67 277.264 406.97 281.975 402.898 286.308C368.695 322.683 307.946 332.402 307.946 332.402V315.971C307.946 315.971 343.244 310.493 369.414 270.326C380.563 253.213 393.282 243.329 405.186 237.414C421.229 229.447 435.792 228.675 443.053 227.117L458.876 231.176L466.788 233.202Z" fill="#62BFF9"/>
<path d="M295.774 317.188C295.774 317.188 295.774 320.839 299.426 322.665" stroke="#F4BFA2" stroke-miterlimit="10"/>
<path d="M466.788 233.202L466.587 233.349L413.841 272.152C410.67 277.264 406.97 281.975 402.898 286.308C368.695 322.683 307.946 332.402 307.946 332.402V315.971C307.946 315.971 343.244 310.493 369.414 270.326C380.563 253.213 393.282 243.329 405.186 237.414C421.229 229.447 435.792 228.675 443.053 227.117L458.876 231.176L466.788 233.202Z" fill="#2A94F4"/>
<path d="M466.437 226.657L443.461 224.023L440.815 247.108L463.791 249.742L466.437 226.657Z" fill="#62BFF9"/>
<path d="M489.306 252.677L483.22 360.398H393.757C393.757 360.398 402.886 325.708 402.277 319.014C402.004 316.025 402.338 302.131 402.898 286.308C403.555 267.922 393.088 253.675 393.757 244.157C413.841 230.16 435.792 228.675 443.053 227.117L458.876 231.176L466.07 233.172C466.246 233.233 466.417 233.288 466.587 233.349C484.321 239.477 489.306 252.677 489.306 252.677Z" fill="#2A94F4"/>
<path d="M481.826 242.404C496.609 256.937 515.475 309.276 508.78 357.963C499.651 357.963 489.305 357.963 489.305 357.963C489.305 357.963 474.699 320.231 470.439 286.15C466.179 252.069 474.395 236.884 474.395 236.884L481.826 242.404Z" fill="#2A94F4"/>
<path d="M320.118 351.877V372.855C320.118 376.714 323.276 379.872 327.135 379.872H557.753C561.612 379.872 564.77 376.714 564.77 372.855V351.877H320.118Z" fill="#0E538C"/>
<path d="M444.879 375.004C449.92 375.004 454.007 370.917 454.007 365.875C454.007 360.833 449.92 356.746 444.879 356.746C439.837 356.746 435.75 360.833 435.75 365.875C435.75 370.917 439.837 375.004 444.879 375.004Z" fill="#2A94F4"/>
<path d="M419.318 371.352C422.343 371.352 424.795 368.9 424.795 365.875C424.795 362.85 422.343 360.398 419.318 360.398C416.293 360.398 413.841 362.85 413.841 365.875C413.841 368.9 416.293 371.352 419.318 371.352Z" fill="#CCE9FF"/>
<path d="M470.439 371.352C473.464 371.352 475.917 368.9 475.917 365.875C475.917 362.85 473.464 360.398 470.439 360.398C467.414 360.398 464.962 362.85 464.962 365.875C464.962 368.9 467.414 371.352 470.439 371.352Z" fill="#CCE9FF"/>
<path opacity="0.85" d="M37.1239 255.112C44.8545 255.112 51.1214 248.845 51.1214 241.114C51.1214 233.383 44.8545 227.117 37.1239 227.117C29.3933 227.117 23.1263 233.383 23.1263 241.114C23.1263 248.845 29.3933 255.112 37.1239 255.112Z" fill="#0BC5EA"/>
<path d="M544.687 255.112C552.418 255.112 558.685 248.845 558.685 241.114C558.685 233.383 552.418 227.117 544.687 227.117C536.956 227.117 530.689 233.383 530.689 241.114C530.689 248.845 536.956 255.112 544.687 255.112Z" fill="#71C9FF"/>
<path d="M282 157L312 176.5L282 196V157Z" fill="#0BC5EA" stroke="#0BC5EA" stroke-width="30" stroke-linecap="round" stroke-linejoin="round"/>
</svg>
