<svg width="604" height="578" viewBox="0 0 604 578" fill="none" xmlns="http://www.w3.org/2000/svg">
<path d="M557.328 439.669C576.909 464.796 589.824 501.149 576.631 529.483C563.577 557.818 524.415 578.133 485.808 577.999C447.062 577.732 408.594 557.016 401.372 531.889C394.012 506.763 417.759 477.359 436.924 452.366C456.089 427.239 470.809 406.657 491.224 403.449C511.638 400.242 537.886 414.409 557.328 439.669Z" fill="#EBF8FF"/>
<path d="M484.231 166.676C547.483 271.594 545.475 418.68 481.219 491.972C416.963 564.762 290.961 564.26 169.477 561.248C47.9927 558.236 -68.4713 553.216 -130.217 481.43C-191.963 409.644 -199.493 271.092 -141.261 169.186C-83.0293 66.7779 40.4627 1.51787 166.967 0.0118688C292.969 -0.992131 421.481 61.7579 484.231 166.676Z" fill="#90CDF4"/>
<path d="M601.898 228.743V389.983C601.898 393.841 598.74 397 594.881 397H364.262C360.404 397 357.245 393.841 357.245 389.983V228.743C357.245 224.885 360.404 221.726 364.262 221.726H594.881C598.74 221.726 601.898 224.885 601.898 228.743Z" stroke="#CCE9FF" stroke-width="3" stroke-miterlimit="10"/>
<path d="M259.549 365.049H28.9299C24.5602 365.049 21 361.489 21 357.119V195.88C21 191.51 24.5602 187.95 28.9299 187.95H259.549C263.924 187.95 267.479 191.51 267.479 195.88V357.119C267.479 361.489 263.918 365.049 259.549 365.049ZM28.9299 189.775C25.5644 189.775 22.8258 192.514 22.8258 195.88V357.119C22.8258 360.485 25.5644 363.223 28.9299 363.223H259.549C262.914 363.223 265.653 360.485 265.653 357.119V195.88C265.653 192.514 262.914 189.775 259.549 189.775H28.9299Z" fill="#0BC5EA"/>
<path d="M341.337 319.125L327.431 317.993L320.14 313.246L306.118 308.761C306.118 308.761 304.146 310.307 306.44 312.102C307.95 313.289 312.319 313.94 316.78 316.611C308.23 316.161 294.056 315.425 289.01 314.268C288.183 314.08 287.483 314.901 287.799 315.686L288.171 316.611L298.827 319.417L288.73 319.977L294.256 335.228C294.256 335.228 330.23 334.005 332.476 330.08C342.572 331.199 345.378 325.028 345.378 325.028L341.337 319.125Z" fill="#F9CEB2"/>
<path d="M460.127 185.454C457.036 189.575 454.973 193.701 457.553 197.304C460.133 200.907 467.345 197.821 467.345 197.304C467.345 196.786 467.345 189.057 467.345 189.057L460.127 185.454Z" fill="#0E538C"/>
<path d="M282.693 212.616V373.855C282.693 377.714 279.535 380.872 275.676 380.872H45.0575C41.199 380.872 38.0405 377.714 38.0405 373.855V212.616C38.0405 208.757 41.199 205.599 45.0575 205.599H275.676C279.535 205.599 282.693 208.757 282.693 212.616Z" fill="#D9F1FF"/>
<path d="M282.693 212.616V220.814H38.0405V212.616C38.0405 208.757 41.199 205.599 45.0575 205.599H275.676C279.535 205.599 282.693 208.757 282.693 212.616Z" fill="#0BC5EA"/>
<path d="M283.734 319.618L294.628 318.729L300.342 315.011L311.333 311.493C311.333 311.493 311.772 312.37 302.984 317.646C309.684 317.293 320.791 316.715 324.741 315.808C325.392 315.656 325.94 316.301 325.69 316.922L325.398 317.646L317.048 319.843L324.96 320.281L314.413 331.272C314.413 331.272 292.437 331.272 290.678 328.193C282.766 329.069 280.569 324.237 280.569 324.237L283.734 319.618Z" fill="#FCDCC3"/>
<path opacity="0.63" d="M219.096 273.456C223.964 283.802 216.661 353.79 216.661 361.702C216.661 369.614 195.361 364.136 195.361 364.136L198.404 280.151L219.096 273.456Z" fill="#0BC5EA"/>
<path d="M177.2 200.426C169.958 203.469 164.499 209.555 162.15 216.919C160.513 222.043 159.497 226.455 157.878 228.488C155.194 231.853 109.099 233.332 129.797 267.407C140.405 284.867 207.259 272.191 207.259 272.191C207.259 272.191 220.617 260.615 220.617 242.303C220.617 235.091 205.439 228.494 207.928 223.363C214.604 209.622 200.54 197.298 191.904 198.503C187.449 197.048 181.947 198.436 177.2 200.426Z" fill="#0E538C"/>
<path d="M212.401 287.454C212.401 287.454 213.618 303.886 213.618 311.798C213.618 312.248 213.582 312.729 213.503 313.252C212.279 321.918 201.447 339.793 201.447 339.793L200.716 342.72L195.361 364.136H137.545C137.545 364.136 134.045 329.879 132.171 301.756C132.165 301.689 132.165 301.616 132.159 301.549C131.465 291.075 130.996 281.465 131.021 274.82C131.033 271.527 131.173 268.959 131.459 267.371C131.654 267.097 131.909 266.823 132.226 266.543C133.059 265.819 134.307 265.088 135.865 264.364C138.817 262.977 142.888 261.613 147.373 260.317C159.6 256.775 174.924 253.762 179.172 252.46L194.357 257.597L219.096 273.456L212.401 287.454Z" fill="#0BC5EA"/>
<path d="M287.866 333.707C287.866 333.707 245.155 350.072 200.716 342.72C176.068 338.642 150.885 327.268 132.171 301.756C132.165 301.689 132.165 301.616 132.159 301.549C131.52 288.129 131.191 279.859 131.021 274.82C130.82 268.734 130.85 267.371 130.85 267.371L132.226 266.543L135.865 264.364C138.817 262.977 142.888 261.613 147.373 260.317L153.368 269.805C165.351 283.456 186.627 302.389 213.503 313.252C235.753 322.241 261.849 325.704 289.692 316.058C292.126 321.535 287.866 333.707 287.866 333.707Z" fill="#0BC5EA"/>
<path d="M192.013 240.897L190.096 256.556L184.735 277.108L178.929 253.878L180.213 236.12L192.013 240.897Z" fill="#FCDCC3"/>
<path d="M205.256 222.298C205.256 233.223 197.953 245.413 188.952 245.413C179.951 245.413 172.648 233.223 172.648 222.298C172.648 211.374 179.951 202.519 188.952 202.519C197.953 202.519 205.256 211.374 205.256 222.298Z" fill="#FFE3CA"/>
<path d="M203.845 211.63C201.416 216.803 195.355 223.826 186.055 225.67C176.756 227.52 174.328 234.166 174.328 234.166C174.328 234.166 165.43 223.077 166.648 219.383C167.859 215.689 177.967 202.385 186.865 202.385C195.762 202.385 203.845 205.349 203.845 211.63Z" fill="#0E538C"/>
<path d="M285.432 333.402C286.272 333.402 286.953 332.721 286.953 331.881C286.953 331.041 286.272 330.36 285.432 330.36C284.592 330.36 283.91 331.041 283.91 331.881C283.91 332.721 284.592 333.402 285.432 333.402Z" fill="#FCDCC3"/>
<path d="M282.693 352.877V373.855C282.693 377.714 279.535 380.872 275.676 380.872H45.0575C41.199 380.872 38.0405 377.714 38.0405 373.855V352.877H282.693Z" fill="#0BC5EA"/>
<path d="M157.933 376.004C162.974 376.004 167.061 371.917 167.061 366.875C167.061 361.833 162.974 357.746 157.933 357.746C152.891 357.746 148.804 361.833 148.804 366.875C148.804 371.917 152.891 376.004 157.933 376.004Z" fill="white"/>
<path d="M183.493 372.352C186.518 372.352 188.971 369.9 188.971 366.875C188.971 363.85 186.518 361.398 183.493 361.398C180.468 361.398 178.016 363.85 178.016 366.875C178.016 369.9 180.468 372.352 183.493 372.352Z" fill="white"/>
<path d="M132.372 372.352C135.397 372.352 137.849 369.9 137.849 366.875C137.849 363.85 135.397 361.398 132.372 361.398C129.347 361.398 126.895 363.85 126.895 366.875C126.895 369.9 129.347 372.352 132.372 372.352Z" fill="white"/>
<path d="M272.652 217.162C274.836 217.162 276.607 215.391 276.607 213.206C276.607 211.021 274.836 209.25 272.652 209.25C270.467 209.25 268.696 211.021 268.696 213.206C268.696 215.391 270.467 217.162 272.652 217.162Z" fill="white"/>
<path opacity="0.85" d="M96.1668 347.4H48.0761C45.9035 347.4 44.1264 345.623 44.1264 343.45V320.622C44.1264 318.449 45.9035 316.672 48.0761 316.672H96.1668C98.3395 316.672 100.117 318.449 100.117 320.622V343.45C100.117 345.623 98.3395 347.4 96.1668 347.4Z" fill="#0BC5EA"/>
<path d="M341.118 212.616V373.855C341.118 377.714 344.276 380.872 348.135 380.872H578.753C582.612 380.872 585.771 377.714 585.771 373.855V212.616C585.771 208.757 582.612 205.599 578.753 205.599H348.135C344.276 205.599 341.118 208.757 341.118 212.616Z" fill="#D9F1FF"/>
<path d="M341.118 212.616V220.814H585.771V212.616C585.771 208.757 582.612 205.599 578.753 205.599H348.135C344.276 205.599 341.118 208.757 341.118 212.616Z" fill="#2A94F4"/>
<path d="M351.159 217.162C353.344 217.162 355.115 215.391 355.115 213.206C355.115 211.021 353.344 209.25 351.159 209.25C348.975 209.25 347.204 211.021 347.204 213.206C347.204 215.391 348.975 217.162 351.159 217.162Z" fill="#CCE9FF"/>
<path d="M527.644 347.4H575.735C577.908 347.4 579.685 345.623 579.685 343.45V320.622C579.685 318.449 577.908 316.672 575.735 316.672H527.644C525.472 316.672 523.694 318.449 523.694 320.622V343.45C523.694 345.623 525.472 347.4 527.644 347.4Z" fill="#CCE9FF"/>
<path d="M467.704 217.162L462.227 236.028L472.378 247.117L485.366 236.74L485.98 212.208L467.704 217.162Z" fill="#FCDCC3"/>
<path d="M457.942 197.45C456.634 221.154 460.085 218.069 469.871 221.203C479.657 224.337 490.186 218.781 493.381 208.8C496.576 198.813 491.238 188.181 481.452 185.047C471.666 181.912 458.521 186.982 457.942 197.45Z" fill="#FFE3CA"/>
<path d="M484.447 197.304C470.778 195.381 452.751 191.12 453.098 176.813C454.9 169.735 455.307 169.893 459.872 172.778C464.436 175.656 491.64 175.102 492.237 180.89C492.833 186.678 491.184 198.247 484.447 197.304Z" fill="#0E538C"/>
<path d="M491.427 178.79C496.448 179.49 502.929 183.343 502.272 189.508C501.615 195.667 500.173 206.177 498.913 208.191C497.653 210.206 486.729 218.562 486.729 218.562C484.69 217.491 486.37 211.666 486.382 209.36C486.406 204.789 486.467 197.59 486.571 197.005C486.729 196.135 485.725 189.228 485.725 189.228L491.427 178.79Z" fill="#0E538C"/>
<path d="M492.016 204.265C492.491 201.625 491.028 199.153 488.749 198.743C486.47 198.333 484.237 200.14 483.762 202.78C483.287 205.42 484.75 207.892 487.029 208.302C489.308 208.712 491.541 206.905 492.016 204.265Z" fill="#FFE3CA"/>
<path d="M487.788 234.202L487.587 234.349L434.841 273.152C431.67 278.264 427.97 282.975 423.898 287.308C389.695 323.683 328.946 333.402 328.946 333.402V316.971C328.946 316.971 364.244 311.493 390.414 271.326C401.563 254.213 414.282 244.329 426.186 238.414C442.229 230.447 456.792 229.675 464.053 228.117L479.876 232.176L487.788 234.202Z" fill="#62BFF9"/>
<path d="M316.774 318.188C316.774 318.188 316.774 321.839 320.426 323.665" stroke="#F4BFA2" stroke-miterlimit="10"/>
<path d="M487.788 234.202L487.587 234.349L434.841 273.152C431.67 278.264 427.97 282.975 423.898 287.308C389.695 323.683 328.946 333.402 328.946 333.402V316.971C328.946 316.971 364.244 311.493 390.414 271.326C401.563 254.213 414.282 244.329 426.186 238.414C442.229 230.447 456.792 229.675 464.053 228.117L479.876 232.176L487.788 234.202Z" fill="#2A94F4"/>
<path d="M487.437 227.657L464.461 225.023L461.815 248.108L484.791 250.742L487.437 227.657Z" fill="#62BFF9"/>
<path d="M510.305 253.677L504.22 361.398H414.757C414.757 361.398 423.886 326.708 423.277 320.013C423.003 317.025 423.338 303.131 423.898 287.308C424.555 268.922 414.088 254.675 414.757 245.157C434.84 231.16 456.792 229.675 464.053 228.117L479.876 232.176L487.07 234.172C487.246 234.233 487.416 234.288 487.587 234.349C505.321 240.477 510.305 253.677 510.305 253.677Z" fill="#2A94F4"/>
<path d="M502.826 243.404C517.609 257.937 536.475 310.276 529.78 358.963C520.651 358.963 510.305 358.963 510.305 358.963C510.305 358.963 495.699 321.231 491.439 287.15C487.179 253.069 495.395 237.884 495.395 237.884L502.826 243.404Z" fill="#2A94F4"/>
<path d="M341.118 352.877V373.855C341.118 377.714 344.276 380.872 348.135 380.872H578.753C582.612 380.872 585.771 377.714 585.771 373.855V352.877H341.118Z" fill="#0E538C"/>
<path d="M465.879 376.004C470.92 376.004 475.007 371.917 475.007 366.875C475.007 361.833 470.92 357.746 465.879 357.746C460.837 357.746 456.75 361.833 456.75 366.875C456.75 371.917 460.837 376.004 465.879 376.004Z" fill="#2A94F4"/>
<path d="M440.318 372.352C443.343 372.352 445.795 369.9 445.795 366.875C445.795 363.85 443.343 361.398 440.318 361.398C437.293 361.398 434.84 363.85 434.84 366.875C434.84 369.9 437.293 372.352 440.318 372.352Z" fill="#CCE9FF"/>
<path d="M491.439 372.352C494.464 372.352 496.917 369.9 496.917 366.875C496.917 363.85 494.464 361.398 491.439 361.398C488.414 361.398 485.962 363.85 485.962 366.875C485.962 369.9 488.414 372.352 491.439 372.352Z" fill="#CCE9FF"/>
<path opacity="0.85" d="M58.124 256.112C65.8546 256.112 72.1215 249.845 72.1215 242.114C72.1215 234.383 65.8546 228.117 58.124 228.117C50.3933 228.117 44.1264 234.383 44.1264 242.114C44.1264 249.845 50.3933 256.112 58.124 256.112Z" fill="#0BC5EA"/>
<path d="M565.687 256.112C573.418 256.112 579.685 249.845 579.685 242.114C579.685 234.383 573.418 228.117 565.687 228.117C557.956 228.117 551.69 234.383 551.69 242.114C551.69 249.845 557.956 256.112 565.687 256.112Z" fill="#71C9FF"/>
<path d="M303 158L333 177.5L303 197V158Z" fill="#2A94F4" stroke="#2A94F4" stroke-width="30" stroke-linecap="round" stroke-linejoin="round"/>
</svg>
