<svg width="814" height="659" viewBox="0 0 814 659" fill="none" xmlns="http://www.w3.org/2000/svg">
<path d="M808.209 35.4702H4.82666C3.63359 35.4689 2.48975 34.9944 1.64612 34.1507C0.802487 33.3071 0.327962 32.1633 0.32666 30.9702V4.5C0.327962 3.30693 0.802487 2.16309 1.64612 1.31946C2.48975 0.475826 3.63359 0.00130229 4.82666 0H808.209C809.403 0.00130229 810.546 0.475826 811.39 1.31946C812.234 2.16309 812.708 3.30693 812.709 4.5V30.9702C812.708 32.1633 812.234 33.3071 811.39 34.1507C810.546 34.9944 809.403 35.4689 808.209 35.4702V35.4702Z" fill="#E4E4E4"/>
<path d="M26.4421 22.8329C29.9706 22.8329 32.831 19.9725 32.831 16.444C32.831 12.9155 29.9706 10.0551 26.4421 10.0551C22.9136 10.0551 20.0532 12.9155 20.0532 16.444C20.0532 19.9725 22.9136 22.8329 26.4421 22.8329Z" fill="white"/>
<path d="M50.6921 22.8329C54.2206 22.8329 57.081 19.9725 57.081 16.444C57.081 12.9155 54.2206 10.0551 50.6921 10.0551C47.1636 10.0551 44.3032 12.9155 44.3032 16.444C44.3032 19.9725 47.1636 22.8329 50.6921 22.8329Z" fill="white"/>
<path d="M74.9431 22.8329C78.4716 22.8329 81.332 19.9725 81.332 16.444C81.332 12.9155 78.4716 10.0551 74.9431 10.0551C71.4146 10.0551 68.5542 12.9155 68.5542 16.444C68.5542 19.9725 71.4146 22.8329 74.9431 22.8329Z" fill="white"/>
<path d="M802.126 658.85H444.811C441.919 658.846 439.146 657.696 437.1 655.651C435.055 653.605 433.905 650.832 433.901 647.94V395.358C433.905 392.465 435.055 389.692 437.1 387.647C439.146 385.602 441.919 384.451 444.811 384.448H802.126C805.019 384.451 807.792 385.602 809.837 387.647C811.882 389.692 813.033 392.465 813.036 395.358V647.94C813.033 650.832 811.882 653.605 809.837 655.651C807.792 657.696 805.018 658.846 802.126 658.85V658.85Z" fill="#E6E6E6"/>
<path d="M787.25 399.322H459.691C456.798 399.326 454.023 400.477 451.977 402.523C449.931 404.569 448.78 407.343 448.776 410.237V633.06C448.78 635.954 449.931 638.728 451.977 640.774C454.023 642.82 456.798 643.971 459.691 643.975H787.25C790.143 643.971 792.916 642.819 794.961 640.773C797.006 638.727 798.155 635.953 798.157 633.06V410.237C798.155 407.344 797.006 404.57 794.961 402.524C792.916 400.478 790.143 399.326 787.25 399.322V399.322Z" fill="white"/>
<path d="M653.321 505.25C658.757 481.573 643.969 457.972 620.292 452.536C596.615 447.1 573.014 461.888 567.578 485.565C562.142 509.242 576.93 532.843 600.607 538.279C624.285 543.715 647.885 528.927 653.321 505.25Z" fill="#9E616A"/>
<path d="M736.957 602.555C735.339 594.911 731.678 587.85 726.364 582.123C721.049 576.396 714.281 572.218 706.78 570.034L706.747 570.016C705.316 569.311 703.8 568.791 702.237 568.469L649.375 557.652L638.784 546.288L593.718 549.165L589.014 562.237L537.247 585.244L538.106 584.642C535.888 585.531 533.731 586.565 531.648 587.737L531.386 587.853C529.894 588.523 528.508 589.407 527.271 590.478C514.107 599.614 505.409 614.28 505.087 630.632L503.721 643.975H745.748L736.957 602.555Z" fill="#5498FF"/>
<path d="M658.588 471.831C654.987 460.584 644.452 451.086 632.645 451.388C633.565 448.582 631.994 445.436 629.643 443.65C627.291 441.865 624.318 441.15 621.427 440.548C615.452 439.303 609.225 438.352 603.284 439.755C597.344 441.158 591.714 445.419 590.377 451.375C584.966 446.303 574.962 447.707 571.155 454.071C569.196 457.346 568.918 461.746 571.035 464.921C573.139 468.076 577.124 469.496 580.911 469.675C584.699 469.854 588.45 469.004 592.221 468.608C601.228 467.662 610.743 469.477 618.025 474.863C625.306 480.249 629.96 489.484 628.665 498.448C631.576 496.588 635.769 497.88 637.802 500.673C639.835 503.465 639.996 507.282 639.051 510.605C638.107 513.927 636.19 516.876 634.3 519.768C630.819 525.092 627.339 530.416 623.858 535.741L625.284 536.689C630.534 538.903 636.214 534.764 640.037 530.538C646.482 523.408 651.674 515.238 655.393 506.374C659.959 495.482 662.19 483.079 658.588 471.831Z" fill="#2F2E41"/>
<path d="M468.838 463.26H13.8909C10.208 463.256 6.67727 461.791 4.07314 459.187C1.469 456.583 0.00416863 453.052 0 449.369V127.773C0.00415541 124.09 1.46898 120.559 4.07312 117.955C6.67726 115.351 10.208 113.886 13.8909 113.882H468.838C472.52 113.886 476.051 115.351 478.655 117.955C481.259 120.559 482.724 124.09 482.728 127.773V449.369C482.724 453.052 481.259 456.583 478.655 459.187C476.051 461.791 472.52 463.256 468.838 463.26V463.26Z" fill="#E6E6E6"/>
<path d="M449.897 132.82H32.8366C29.1523 132.825 25.6203 134.29 23.0151 136.896C20.4099 139.501 18.9442 143.033 18.9395 146.717V430.424C18.9442 434.108 20.4098 437.64 23.015 440.246C25.6202 442.851 29.1523 444.316 32.8366 444.321H449.897C453.58 444.316 457.111 442.85 459.715 440.244C462.318 437.639 463.781 434.107 463.784 430.424V146.717C463.781 143.034 462.318 139.502 459.715 136.897C457.111 134.291 453.58 132.825 449.897 132.82V132.82Z" fill="white"/>
<path d="M301.375 265.962L300.606 267.348C307.453 250.475 301.227 229.682 289.013 216.959C276.799 204.235 259.82 198.419 243.1 196.111C230.689 194.398 217.806 194.447 206.004 198.994C188.914 205.577 175.857 220.818 164.955 236.672C159.969 243.924 155.066 252.191 155.563 261.255C156.024 269.666 161.017 276.804 165.105 283.94C169.194 291.076 172.609 299.93 169.674 307.719C167.925 312.36 164.23 315.703 161.231 319.5C158.232 323.296 155.765 328.428 157.214 333.192C158.386 337.046 161.911 339.581 165.537 340.426C169.162 341.27 172.923 340.718 176.594 340.164L271.894 325.765C278.37 324.787 284.513 322.257 289.8 318.391C295.086 314.525 299.36 309.438 302.256 303.564C305.152 297.69 306.584 291.202 306.431 284.655C306.277 278.107 304.543 271.694 301.375 265.962V265.962Z" fill="#2F2E41"/>
<path d="M230.49 325.101C256.223 325.101 277.084 304.24 277.084 278.507C277.084 252.774 256.223 231.913 230.49 231.913C204.757 231.913 183.896 252.774 183.896 278.507C183.896 304.24 204.757 325.101 230.49 325.101Z" fill="#FFB9B9"/>
<path d="M346.707 383.985C343.692 377.378 338.936 371.715 332.948 367.603C326.961 363.492 319.968 361.087 312.719 360.645L299.733 359.859L299.765 359.995V359.995L266.754 340.137C267.566 341.067 213.059 343.014 213.059 343.014L192.835 360.462L184.353 360.975C177.103 361.417 170.111 363.822 164.123 367.933C158.136 372.045 153.38 377.708 150.365 384.315L122.822 444.651H177.719L178.992 439.17C180.378 440.858 181.721 442.575 183.022 444.321H374.249L346.707 383.985Z" fill="#5498FF"/>
<path d="M274.685 235.262C273.482 228.899 266.993 225.989 261.433 224.579C245.305 220.464 228.528 219.543 212.047 221.867C200.033 223.581 187.733 227.359 179.015 236.737C172.216 244.051 168.103 254.529 167.782 265.347C167.596 271.652 168.723 278.213 171.86 283.523C174.997 288.833 180.345 292.684 185.864 292.549L186.423 294.493C209.817 291.234 231.547 276.678 245.233 255.101C242.664 264.273 237.553 272.531 230.489 278.92C246.283 272.6 260.011 262.02 270.146 248.357C272.913 244.684 275.6 240.103 274.685 235.262Z" fill="#2F2E41"/>
<path d="M784.45 12.0466H756.525C756.252 12.0475 755.983 11.9946 755.731 11.891C755.479 11.7874 755.251 11.6352 755.058 11.443C754.865 11.2509 754.712 11.0226 754.608 10.7712C754.503 10.5198 754.45 10.2503 754.45 9.97813C754.45 9.70595 754.503 9.43644 754.608 9.18505C754.712 8.93367 754.865 8.70536 755.058 8.51319C755.251 8.32103 755.479 8.1688 755.731 8.06523C755.983 7.96165 756.252 7.90877 756.525 7.90962H784.45C784.997 7.91132 785.521 8.13001 785.908 8.51774C786.295 8.90548 786.512 9.43064 786.512 9.97813C786.512 10.5256 786.295 11.0508 785.908 11.4385C785.521 11.8262 784.997 12.0449 784.45 12.0466V12.0466Z" fill="white"/>
<path d="M784.45 19.8035H756.525C756.252 19.8044 755.983 19.7515 755.731 19.6479C755.479 19.5443 755.251 19.3921 755.058 19.1999C754.865 19.0078 754.712 18.7795 754.608 18.5281C754.503 18.2767 754.45 18.0072 754.45 17.735C754.45 17.4628 754.503 17.1933 754.608 16.942C754.712 16.6906 754.865 16.4623 755.058 16.2701C755.251 16.0779 755.479 15.9257 755.731 15.8221C755.983 15.7186 756.252 15.6657 756.525 15.6665H784.45C784.997 15.6682 785.521 15.8869 785.908 16.2746C786.295 16.6624 786.512 17.1875 786.512 17.735C786.512 18.2825 786.295 18.8077 785.908 19.1954C785.521 19.5831 784.997 19.8018 784.45 19.8035V19.8035Z" fill="white"/>
<path d="M784.45 27.5605H756.525C756.252 27.5613 755.983 27.5084 755.731 27.4048C755.479 27.3013 755.251 27.149 755.058 26.9569C754.865 26.7647 754.712 26.5364 754.608 26.285C754.503 26.0336 754.45 25.7641 754.45 25.4919C754.45 25.2198 754.503 24.9503 754.608 24.6989C754.712 24.4475 754.865 24.2192 755.058 24.027C755.251 23.8349 755.479 23.6826 755.731 23.5791C755.983 23.4755 756.252 23.4226 756.525 23.4234H784.45C784.997 23.4251 785.521 23.6438 785.908 24.0316C786.295 24.4193 786.512 24.9444 786.512 25.4919C786.512 26.0394 786.295 26.5646 785.908 26.9523C785.521 27.3401 784.997 27.5587 784.45 27.5605V27.5605Z" fill="white"/>
</svg>
